<svg version="1.2" xmlns="http://www.w3.org/2000/svg" viewBox="0 0 509 551" width="509" height="551">
	<title>logo auditorías digitales</title>
	<style>
		.s0 { fill: #000000 } 
		.s1 { fill: #881386 } 
	</style>
	<g id="Layer 1">
		<g id="&lt;Group&gt;">
			<g id="&lt;Group&gt;">
				<g id="&lt;Group&gt;">
					<path id="&lt;Compound Path&gt;" class="s0" d="m227 0.8l206 426.5q4.9 10.6 11.7 17.5c4.5 4.6 8.9 8.5 13.2 11.6q6.5 4.6 12.3 7.3 5.9 2.6 9.6 4 1.8 0 1.8 2.6c0.4 0.9 0.6 1.8 0.6 2.7h-209c0-0.9 0-1.8 0-2.7q1.2-2.6 1.8-2.6c2.4-0.9 5.7-2.1 9.8-3.7 4.1-1.5 7.8-3.7 11.1-6.6 3.3-2.9 5.4-6.6 6.5-11.3q1.5-6.9-4-18.8l-130.4-264.9 56.6-161.6z"/>
				</g>
				<path id="&lt;Path&gt;" class="s1" d="m161.7 409.4c0 38.3-31.1 69.4-69.4 69.4-38.3 0-69.4-31.1-69.4-69.4 0-38.3 31.1-69.4 69.4-69.4 38.3 0 69.4 31.1 69.4 69.4z"/>
			</g>
			<g id="&lt;Group&gt;">
				<path id="&lt;Compound Path&gt;" fill-rule="evenodd" class="s0" d="m14.5 545.9h-8.8l-1.7 4.1h-3.4l7.9-17.6h3.2l8 17.6h-3.5zm-1-2.6l-3.3-7.7-3.3 7.7z"/>
				<path id="&lt;Compound Path&gt;" class="s0" d="m34 548.2q-2.1-2.1-2.1-5.9v-9.9h3.3v9.8q0 5.2 4.5 5.2 4.4 0 4.4-5.2v-9.8h3.2v9.9q0 3.8-2 5.9-2 2-5.7 2-3.6 0-5.6-2z"/>
				<path id="&lt;Compound Path&gt;" fill-rule="evenodd" class="s0" d="m62.5 532.4h7.7q2.8 0 5 1.1 2.1 1.1 3.4 3.1 1.2 2 1.2 4.6 0 2.6-1.2 4.6-1.3 2-3.4 3.1-2.2 1.1-5 1.1h-7.7zm7.5 14.8q1.9 0 3.4-0.7 1.5-0.8 2.3-2.1 0.8-1.4 0.8-3.2 0-1.8-0.8-3.2-0.8-1.4-2.3-2.1-1.5-0.8-3.4-0.8h-4.3v12.1z"/>
				<path id="&lt;Compound Path&gt;" class="s0" d="m93.8 532.4h3.2v17.6h-3.2z"/>
				<path id="&lt;Compound Path&gt;" class="s0" d="m115.9 535.1h-5.8v-2.7h14.9v2.7h-5.8v14.9h-3.3z"/>
				<path id="&lt;Compound Path&gt;" fill-rule="evenodd" class="s0" d="m141.2 549.1q-2.2-1.2-3.4-3.3-1.3-2.1-1.3-4.6 0-2.6 1.3-4.7 1.2-2 3.4-3.2 2.1-1.2 4.8-1.2 2.7 0 4.9 1.2 2.1 1.2 3.3 3.2 1.3 2.1 1.3 4.7 0 2.6-1.3 4.6-1.2 2.1-3.3 3.3-2.2 1.1-4.9 1.1-2.7 0-4.8-1.1zm8-2.5q1.4-0.8 2.2-2.2 0.8-1.5 0.8-3.2 0-1.8-0.8-3.2-0.8-1.4-2.2-2.2-1.4-0.8-3.2-0.8-1.8 0-3.2 0.8-1.4 0.8-2.2 2.2-0.8 1.4-0.8 3.2 0 1.7 0.8 3.2 0.8 1.4 2.2 2.2 1.4 0.8 3.2 0.8 1.8 0 3.2-0.8z"/>
				<path id="&lt;Compound Path&gt;" fill-rule="evenodd" class="s0" d="m181 550l-3.6-5.2q-0.2 0-0.7 0h-3.9v5.2h-3.3v-17.6h7.2q2.3 0 4 0.7 1.7 0.8 2.6 2.2 0.9 1.4 0.9 3.3 0 2-0.9 3.5-1 1.4-2.8 2.1l4 5.8zm-1.1-13.9q-1.2-1-3.3-1h-3.8v7.1h3.8q2.1 0 3.3-1 1.1-0.9 1.1-2.6 0-1.6-1.1-2.5z"/>
				<path id="&lt;Compound Path&gt;" class="s0" d="m201.3 527.5h3.7l-4.3 3.5h-2.7zm-3 4.8h3.3v17.6h-3.3z"/>
				<path id="&lt;Compound Path&gt;" fill-rule="evenodd" class="s0" d="m228.4 545.9h-8.8l-1.7 4.1h-3.4l7.9-17.6h3.2l8 17.6h-3.4zm-1.1-2.6l-3.3-7.7-3.3 7.7z"/>
				<path id="&lt;Compound Path&gt;" class="s0" d="m247.9 549.6q-1.9-0.5-3-1.5l1.1-2.5q1.1 0.8 2.7 1.4 1.6 0.5 3.1 0.5 2 0 3-0.6 0.9-0.6 0.9-1.7 0-0.7-0.5-1.2-0.6-0.5-1.4-0.8-0.8-0.3-2.2-0.6-2.1-0.5-3.3-1-1.2-0.4-2.1-1.5-0.9-1-0.9-2.7 0-1.5 0.8-2.7 0.8-1.2 2.4-1.9 1.6-0.7 3.9-0.7 1.6 0 3.1 0.4 1.6 0.4 2.7 1.2l-1 2.5q-1.2-0.6-2.4-1-1.3-0.4-2.5-0.4-1.9 0-2.8 0.7-1 0.7-1 1.7 0 0.8 0.6 1.3 0.5 0.4 1.3 0.7 0.9 0.3 2.3 0.6 1.9 0.5 3.2 1 1.3 0.5 2.2 1.5 0.8 1 0.8 2.7 0 1.5-0.7 2.6-0.8 1.2-2.4 1.9-1.7 0.7-4 0.7-2 0-3.9-0.6z"/>
				<path id="&lt;Compound Path&gt;" fill-rule="evenodd" class="s0" d="m290.2 532.4h7.7q2.8 0 5 1.1 2.2 1.1 3.4 3.1 1.2 2 1.2 4.6 0 2.6-1.2 4.6-1.2 2-3.4 3.1-2.2 1.1-5 1.1h-7.7zm7.6 14.8q1.9 0 3.4-0.7 1.5-0.8 2.2-2.1 0.8-1.4 0.8-3.2 0-1.8-0.8-3.2-0.7-1.4-2.2-2.1-1.5-0.8-3.4-0.8h-4.3v12.1z"/>
				<path id="&lt;Compound Path&gt;" class="s0" d="m321.6 532.4h3.2v17.6h-3.2z"/>
				<path id="&lt;Compound Path&gt;" class="s0" d="m352.1 541h3.1v7q-1.3 1.1-3.1 1.6-1.8 0.6-3.8 0.6-2.6 0-4.8-1.1-2.2-1.2-3.4-3.3-1.2-2-1.2-4.6 0-2.6 1.2-4.7 1.2-2 3.4-3.2 2.2-1.2 4.9-1.2 2.2 0 4 0.8 1.8 0.7 3.1 2.1l-2.1 2q-2-2-4.9-2-1.8 0-3.3 0.8-1.4 0.8-2.2 2.2-0.8 1.4-0.8 3.2 0 1.7 0.8 3.1 0.8 1.5 2.2 2.3 1.5 0.8 3.3 0.8 2.1 0 3.6-0.9z"/>
				<path id="&lt;Compound Path&gt;" class="s0" d="m370.1 532.4h3.2v17.6h-3.2z"/>
				<path id="&lt;Compound Path&gt;" class="s0" d="m392.2 535.1h-5.8v-2.7h14.9v2.7h-5.8v14.9h-3.3z"/>
				<path id="&lt;Compound Path&gt;" fill-rule="evenodd" class="s0" d="m424.9 545.9h-8.8l-1.8 4.1h-3.3l7.9-17.6h3.2l7.9 17.6h-3.4zm-1.1-2.6l-3.3-7.7-3.3 7.7z"/>
				<path id="&lt;Compound Path&gt;" class="s0" d="m442.8 532.4h3.3v14.8h9.2v2.8h-12.5z"/>
				<path id="&lt;Compound Path&gt;" class="s0" d="m481.6 547.2v2.8h-13.2v-17.6h12.9v2.7h-9.6v4.6h8.5v2.7h-8.5v4.8z"/>
				<path id="&lt;Compound Path&gt;" class="s0" d="m497.4 549.6q-1.9-0.5-3-1.5l1.1-2.5q1.1 0.8 2.6 1.4 1.6 0.5 3.2 0.5 2 0 2.9-0.6 1-0.6 1-1.7 0-0.7-0.6-1.2-0.5-0.5-1.3-0.8-0.8-0.3-2.3-0.6-2-0.5-3.2-1-1.3-0.4-2.2-1.5-0.9-1-0.9-2.7 0-1.5 0.8-2.7 0.8-1.2 2.4-1.9 1.6-0.7 3.9-0.7 1.6 0 3.2 0.4 1.5 0.4 2.7 1.2l-1.1 2.5q-1.1-0.6-2.4-1-1.2-0.4-2.4-0.4-1.9 0-2.9 0.7-0.9 0.7-0.9 1.7 0 0.8 0.5 1.3 0.6 0.4 1.4 0.7 0.8 0.3 2.2 0.6 2 0.5 3.3 1 1.2 0.5 2.1 1.5 0.9 1 0.9 2.7 0 1.5-0.8 2.6-0.8 1.2-2.4 1.9-1.6 0.7-3.9 0.7-2 0-3.9-0.6z"/>
			</g>
		</g>
	</g>
</svg>